<svg xmlns="http://www.w3.org/2000/svg" xmlns:xlink="http://www.w3.org/1999/xlink" version="1.1" class="" pageAlignment="none" x="0px" y="0px" width="200px" height="200px" viewBox="0 0 200 200" enable-background="new 0 0 200 200" xml:space="preserve" bodyBackgroundColor="rgba(255,255,255,0)"><defs/><g type="LAYER" name="workspace" id="workspace" locked="true"/><g type="LAYER" name="Layer 01" id="Layer 01"><path transform="matrix(1 0 0 1 659.4145120934112 445.6751459549625)" width="83.5679733110926" height="67.41618015012509" stroke-miterlimit="3" stroke="#AC2A2A" fill="#000000" d="M223.3160967472894,121.9370308590492 L272.47372810675563,105.78523769808174 L306.884070058382,150.02710592160133 L252.81067556296915,173.20141784820683 L223.3160967472894,121.9370308590492 "/><path transform="matrix(1 0 0 1 660.8190158465388 424.60758965804837)" width="83.5679733110926" height="67.41618015012509" stroke-miterlimit="3" stroke="#000000" fill="#AC2A2A" d="M223.3160967472894,121.9370308590492 L272.47372810675563,105.78523769808174 L306.884070058382,150.02710592160133 L252.81067556296915,173.20141784820683 L223.3160967472894,121.9370308590492 "/><path transform="matrix(1 0 0 1 51.17411370461905 39.05045123552038)" width="107.77335795724619" height="106.36885420411858" stroke-width="0.9481746857418345" stroke-miterlimit="3" stroke="none" fill="#DABB85" d="M0,53.18442710205929 C0,23.811476416883895 24.125885256250037,0 53.8866789786231,0 C83.64747270099616,0 107.7733579572462,23.811476416883895 107.7733579572462,53.18442710205929 C107.7733579572462,82.55737778723469 83.64747270099616,106.36885420411858 53.8866789786231,106.36885420411858 C24.125885256250037,106.36885420411858 0,82.55737778723469 0,53.18442710205929 Z "/></g></svg>
